<svg xmlns="http://www.w3.org/2000/svg" version="1.1" xmlns:xlink="http://www.w3.org/1999/xlink" xmlns:svgjs="http://svgjs.dev/svgjs" width="1440" height="560" preserveAspectRatio="none" viewBox="0 0 1440 560"><g mask="url(&quot;#SvgjsMask1610&quot;)" fill="none"><rect width="1440" height="560" x="0" y="0" fill="url(&quot;#SvgjsLinearGradient1611&quot;)"></rect><path d="M1440 0L1118.8 0L1440 246.69z" fill="rgba(255, 255, 255, .1)"></path><path d="M1118.8 0L1440 246.69L1440 352.35L553.2199999999999 0z" fill="rgba(255, 255, 255, .075)"></path><path d="M553.22 0L1440 352.35L1440 352.39000000000004L281.61 0z" fill="rgba(255, 255, 255, .05)"></path><path d="M281.6100000000001 0L1440 352.39000000000004L1440 424.37000000000006L280.3900000000001 0z" fill="rgba(255, 255, 255, .025)"></path><path d="M0 560L606.2 560L0 471.11z" fill="rgba(0, 0, 0, .1)"></path><path d="M0 471.11L606.2 560L789.0400000000001 560L0 409.38z" fill="rgba(0, 0, 0, .075)"></path><path d="M0 409.38L789.0400000000001 560L913.7 560L0 237.57z" fill="rgba(0, 0, 0, .05)"></path><path d="M0 237.57L913.7 560L1249.8700000000001 560L0 181.67z" fill="rgba(0, 0, 0, .025)"></path></g><defs><mask id="SvgjsMask1610"><rect width="1440" height="560" fill="#ffffff"></rect></mask><linearGradient x1="15.28%" y1="-39.29%" x2="84.72%" y2="139.29%" gradientUnits="userSpaceOnUse" id="SvgjsLinearGradient1611"><stop stop-color="rgba(255, 163, 0, 1)" offset="0.26"></stop><stop stop-color="rgba(14, 30, 211, 1)" offset="0.99"></stop></linearGradient></defs></svg>