<svg xmlns="http://www.w3.org/2000/svg" version="1.1" xmlns:xlink="http://www.w3.org/1999/xlink" xmlns:svgjs="http://svgjs.dev/svgjs" width="1440" height="660" preserveAspectRatio="none" viewBox="0 0 1440 660"><g mask="url(&quot;#SvgjsMask2987&quot;)" fill="none"><rect width="1440" height="660" x="0" y="0" fill="url(&quot;#SvgjsRadialGradient2988&quot;)"></rect><g mask="url(&quot;#SvgjsMask2990&quot;)"><path d="M-10 330L10 330" stroke="url(&quot;#SvgjsLinearGradient2989&quot;)" stroke-width="3.33"></path><path d="M5 330 a5 5 0 1 0 10 0 a5 5 0 1 0 -10 0z" fill="url(&quot;#SvgjsLinearGradient2989&quot;)"></path><path d="M70 350L90 330L110 330L130 310M250 370L270 350L290 350M190 350L210 330M50 350L70 330M-10 350L10 350L30 350L50 350L70 350L90 350L110 350L130 350L150 350L170 350L190 350L210 350L230 350L250 370L270 370L290 390" stroke="url(&quot;#SvgjsLinearGradient2989&quot;)" stroke-width="3.33"></path><path d="M285 390 a5 5 0 1 0 10 0 a5 5 0 1 0 -10 0zM125 310 a5 5 0 1 0 10 0 a5 5 0 1 0 -10 0zM285 350 a5 5 0 1 0 10 0 a5 5 0 1 0 -10 0zM205 330 a5 5 0 1 0 10 0 a5 5 0 1 0 -10 0zM65 330 a5 5 0 1 0 10 0 a5 5 0 1 0 -10 0z" fill="url(&quot;#SvgjsLinearGradient2989&quot;)"></path><path d="M70 290L90 290L110 290L130 290L150 290M130 270L150 270M30 310L50 330M-10 310L10 310L30 310L50 290L70 290L90 270L110 270L130 270L150 250" stroke="url(&quot;#SvgjsLinearGradient2989&quot;)" stroke-width="3.33"></path><path d="M145 250 a5 5 0 1 0 10 0 a5 5 0 1 0 -10 0zM145 290 a5 5 0 1 0 10 0 a5 5 0 1 0 -10 0zM145 270 a5 5 0 1 0 10 0 a5 5 0 1 0 -10 0zM45 330 a5 5 0 1 0 10 0 a5 5 0 1 0 -10 0z" fill="url(&quot;#SvgjsLinearGradient2989&quot;)"></path><path d="M210 370L230 390L250 410M310 410L330 430L350 430L370 430M330 410L350 390L370 390M70 370L90 390L110 390M290 410L310 430L330 450M-10 370L10 370L30 370L50 370L70 370L90 370L110 370L130 370L150 370L170 370L190 370L210 370L230 370L250 390L270 390L290 410L310 410L330 410L350 410L370 410" stroke="url(&quot;#SvgjsLinearGradient2989&quot;)" stroke-width="3.33"></path><path d="M365 410 a5 5 0 1 0 10 0 a5 5 0 1 0 -10 0zM245 410 a5 5 0 1 0 10 0 a5 5 0 1 0 -10 0zM365 430 a5 5 0 1 0 10 0 a5 5 0 1 0 -10 0zM365 390 a5 5 0 1 0 10 0 a5 5 0 1 0 -10 0zM105 390 a5 5 0 1 0 10 0 a5 5 0 1 0 -10 0zM325 450 a5 5 0 1 0 10 0 a5 5 0 1 0 -10 0z" fill="url(&quot;#SvgjsLinearGradient2989&quot;)"></path><path d="M170 230L190 250M10 290L30 270M-10 290L10 290L30 290L50 270L70 270L90 250L110 250L130 250L150 230L170 230L190 230L210 230" stroke="url(&quot;#SvgjsLinearGradient2989&quot;)" stroke-width="3.33"></path><path d="M205 230 a5 5 0 1 0 10 0 a5 5 0 1 0 -10 0zM185 250 a5 5 0 1 0 10 0 a5 5 0 1 0 -10 0zM25 270 a5 5 0 1 0 10 0 a5 5 0 1 0 -10 0z" fill="url(&quot;#SvgjsLinearGradient2989&quot;)"></path><path d="M-10 390L10 390L30 390" stroke="url(&quot;#SvgjsLinearGradient2989&quot;)" stroke-width="3.33"></path><path d="M25 390 a5 5 0 1 0 10 0 a5 5 0 1 0 -10 0z" fill="url(&quot;#SvgjsLinearGradient2989&quot;)"></path><path d="M30 250L50 230L70 230M-10 270L10 250L30 250L50 250L70 250L90 230L110 230L130 230L150 210L170 210L190 210" stroke="url(&quot;#SvgjsLinearGradient2989&quot;)" stroke-width="3.33"></path><path d="M185 210 a5 5 0 1 0 10 0 a5 5 0 1 0 -10 0zM65 230 a5 5 0 1 0 10 0 a5 5 0 1 0 -10 0z" fill="url(&quot;#SvgjsLinearGradient2989&quot;)"></path><path d="M250 430L270 450M50 410L70 390M230 430L250 450L270 470M-10 410L10 410L30 410L50 410L70 410L90 410L110 430L130 430L150 430L170 430L190 430L210 430L230 430L250 430L270 430" stroke="url(&quot;#SvgjsLinearGradient2989&quot;)" stroke-width="3.33"></path><path d="M265 430 a5 5 0 1 0 10 0 a5 5 0 1 0 -10 0zM265 450 a5 5 0 1 0 10 0 a5 5 0 1 0 -10 0zM65 390 a5 5 0 1 0 10 0 a5 5 0 1 0 -10 0zM265 470 a5 5 0 1 0 10 0 a5 5 0 1 0 -10 0z" fill="url(&quot;#SvgjsLinearGradient2989&quot;)"></path><path d="M-10 250L10 230" stroke="url(&quot;#SvgjsLinearGradient2989&quot;)" stroke-width="3.33"></path><path d="M5 230 a5 5 0 1 0 10 0 a5 5 0 1 0 -10 0z" fill="url(&quot;#SvgjsLinearGradient2989&quot;)"></path><path d="M70 430L90 430M-10 430L10 430L30 430L50 430L70 430L90 450" stroke="url(&quot;#SvgjsLinearGradient2989&quot;)" stroke-width="3.33"></path><path d="M85 450 a5 5 0 1 0 10 0 a5 5 0 1 0 -10 0zM85 430 a5 5 0 1 0 10 0 a5 5 0 1 0 -10 0z" fill="url(&quot;#SvgjsLinearGradient2989&quot;)"></path><path d="M-10 230L10 210L30 210L50 210L70 210L90 210L110 210" stroke="url(&quot;#SvgjsLinearGradient2989&quot;)" stroke-width="3.33"></path><path d="M105 210 a5 5 0 1 0 10 0 a5 5 0 1 0 -10 0z" fill="url(&quot;#SvgjsLinearGradient2989&quot;)"></path><path d="M150 470L170 450L190 450L210 450L230 450M270 510L290 490M130 470L150 450M250 490L270 490M-10 450L10 450L30 450L50 450L70 450L90 470L110 470L130 470L150 470L170 470L190 470L210 470L230 470L250 490L270 510L290 510" stroke="url(&quot;#SvgjsLinearGradient2989&quot;)" stroke-width="3.33"></path><path d="M285 510 a5 5 0 1 0 10 0 a5 5 0 1 0 -10 0zM225 450 a5 5 0 1 0 10 0 a5 5 0 1 0 -10 0zM285 490 a5 5 0 1 0 10 0 a5 5 0 1 0 -10 0zM145 450 a5 5 0 1 0 10 0 a5 5 0 1 0 -10 0zM265 490 a5 5 0 1 0 10 0 a5 5 0 1 0 -10 0z" fill="url(&quot;#SvgjsLinearGradient2989&quot;)"></path><path d="M210 190L230 210L250 210M-10 210L10 190L30 190L50 190L70 190L90 190L110 190L130 190L150 190L170 190L190 190L210 190L230 190" stroke="url(&quot;#SvgjsLinearGradient2989&quot;)" stroke-width="3.33"></path><path d="M225 190 a5 5 0 1 0 10 0 a5 5 0 1 0 -10 0zM245 210 a5 5 0 1 0 10 0 a5 5 0 1 0 -10 0z" fill="url(&quot;#SvgjsLinearGradient2989&quot;)"></path><path d="M190 490L210 510L230 510L250 530L270 550M170 490L190 510L210 530L230 530L250 550M110 490L130 510M50 470L70 490M30 470L50 490M-10 470L10 470L30 470L50 470L70 470L90 490L110 490L130 490L150 490L170 490L190 490L210 490L230 490L250 510L270 530L290 530L310 530L330 530L350 530L370 530" stroke="url(&quot;#SvgjsLinearGradient2989&quot;)" stroke-width="3.33"></path><path d="M365 530 a5 5 0 1 0 10 0 a5 5 0 1 0 -10 0zM265 550 a5 5 0 1 0 10 0 a5 5 0 1 0 -10 0zM245 550 a5 5 0 1 0 10 0 a5 5 0 1 0 -10 0zM125 510 a5 5 0 1 0 10 0 a5 5 0 1 0 -10 0zM65 490 a5 5 0 1 0 10 0 a5 5 0 1 0 -10 0zM45 490 a5 5 0 1 0 10 0 a5 5 0 1 0 -10 0z" fill="url(&quot;#SvgjsLinearGradient2989&quot;)"></path><path d="M310 170L330 190L350 190L370 190M270 170L290 190L310 190L330 210M250 170L270 190L290 210M-10 190L10 170L30 170L50 170L70 170L90 170L110 170L130 170L150 170L170 170L190 170L210 170L230 170L250 170L270 170L290 170L310 170L330 170" stroke="url(&quot;#SvgjsLinearGradient2989&quot;)" stroke-width="3.33"></path><path d="M325 170 a5 5 0 1 0 10 0 a5 5 0 1 0 -10 0zM365 190 a5 5 0 1 0 10 0 a5 5 0 1 0 -10 0zM325 210 a5 5 0 1 0 10 0 a5 5 0 1 0 -10 0zM285 210 a5 5 0 1 0 10 0 a5 5 0 1 0 -10 0z" fill="url(&quot;#SvgjsLinearGradient2989&quot;)"></path><path d="M30 150L50 130L70 130L90 130L110 130L130 110M310 150L330 130M190 150L210 130L230 130M130 150L150 130L170 110L190 110M-10 170L10 150L30 150L50 150L70 150L90 150L110 150L130 150L150 150L170 150L190 150L210 150L230 150L250 150L270 150L290 150L310 150L330 150" stroke="url(&quot;#SvgjsLinearGradient2989&quot;)" stroke-width="3.33"></path><path d="M325 150 a5 5 0 1 0 10 0 a5 5 0 1 0 -10 0zM125 110 a5 5 0 1 0 10 0 a5 5 0 1 0 -10 0zM325 130 a5 5 0 1 0 10 0 a5 5 0 1 0 -10 0zM225 130 a5 5 0 1 0 10 0 a5 5 0 1 0 -10 0zM185 110 a5 5 0 1 0 10 0 a5 5 0 1 0 -10 0z" fill="url(&quot;#SvgjsLinearGradient2989&quot;)"></path></g></g><defs><mask id="SvgjsMask2987"><rect width="1440" height="660" fill="#ffffff"></rect></mask><radialGradient cx="0%" cy="0%" r="1584.05" gradientUnits="userSpaceOnUse" id="SvgjsRadialGradient2988"><stop stop-color="rgba(255, 185, 10, 1)" offset="0"></stop><stop stop-color="rgba(255, 185, 10, 1)" offset="0.25"></stop><stop stop-color="rgba(33, 71, 133, 1)" offset="1"></stop></radialGradient><linearGradient x1="0" y1="330" x2="417.6" y2="330" gradientUnits="userSpaceOnUse" id="SvgjsLinearGradient2989"><stop stop-color="rgba(173, 221, 17, 1)" offset="0"></stop><stop stop-color="rgba(44, 2, 255, 1)" offset="0"></stop></linearGradient><mask id="SvgjsMask2990"><rect width="1440" height="660" fill="white"></rect><path d="M7.5 330 a2.5 2.5 0 1 0 5 0 a2.5 2.5 0 1 0 -5 0z" fill="black"></path><path d="M287.5 390 a2.5 2.5 0 1 0 5 0 a2.5 2.5 0 1 0 -5 0zM127.5 310 a2.5 2.5 0 1 0 5 0 a2.5 2.5 0 1 0 -5 0zM287.5 350 a2.5 2.5 0 1 0 5 0 a2.5 2.5 0 1 0 -5 0zM207.5 330 a2.5 2.5 0 1 0 5 0 a2.5 2.5 0 1 0 -5 0zM67.5 330 a2.5 2.5 0 1 0 5 0 a2.5 2.5 0 1 0 -5 0z" fill="black"></path><path d="M147.5 250 a2.5 2.5 0 1 0 5 0 a2.5 2.5 0 1 0 -5 0zM147.5 290 a2.5 2.5 0 1 0 5 0 a2.5 2.5 0 1 0 -5 0zM147.5 270 a2.5 2.5 0 1 0 5 0 a2.5 2.5 0 1 0 -5 0zM47.5 330 a2.5 2.5 0 1 0 5 0 a2.5 2.5 0 1 0 -5 0z" fill="black"></path><path d="M367.5 410 a2.5 2.5 0 1 0 5 0 a2.5 2.5 0 1 0 -5 0zM247.5 410 a2.5 2.5 0 1 0 5 0 a2.5 2.5 0 1 0 -5 0zM367.5 430 a2.5 2.5 0 1 0 5 0 a2.5 2.5 0 1 0 -5 0zM367.5 390 a2.5 2.5 0 1 0 5 0 a2.5 2.5 0 1 0 -5 0zM107.5 390 a2.5 2.5 0 1 0 5 0 a2.5 2.5 0 1 0 -5 0zM327.5 450 a2.5 2.5 0 1 0 5 0 a2.5 2.5 0 1 0 -5 0z" fill="black"></path><path d="M207.5 230 a2.5 2.5 0 1 0 5 0 a2.5 2.5 0 1 0 -5 0zM187.5 250 a2.5 2.5 0 1 0 5 0 a2.5 2.5 0 1 0 -5 0zM27.5 270 a2.5 2.5 0 1 0 5 0 a2.5 2.5 0 1 0 -5 0z" fill="black"></path><path d="M27.5 390 a2.5 2.5 0 1 0 5 0 a2.5 2.5 0 1 0 -5 0z" fill="black"></path><path d="M187.5 210 a2.5 2.5 0 1 0 5 0 a2.5 2.5 0 1 0 -5 0zM67.5 230 a2.5 2.5 0 1 0 5 0 a2.5 2.5 0 1 0 -5 0z" fill="black"></path><path d="M267.5 430 a2.5 2.5 0 1 0 5 0 a2.5 2.5 0 1 0 -5 0zM267.5 450 a2.5 2.5 0 1 0 5 0 a2.5 2.5 0 1 0 -5 0zM67.5 390 a2.5 2.5 0 1 0 5 0 a2.5 2.5 0 1 0 -5 0zM267.5 470 a2.5 2.5 0 1 0 5 0 a2.5 2.5 0 1 0 -5 0z" fill="black"></path><path d="M7.5 230 a2.5 2.5 0 1 0 5 0 a2.5 2.5 0 1 0 -5 0z" fill="black"></path><path d="M87.5 450 a2.5 2.5 0 1 0 5 0 a2.5 2.5 0 1 0 -5 0zM87.5 430 a2.5 2.5 0 1 0 5 0 a2.5 2.5 0 1 0 -5 0z" fill="black"></path><path d="M107.5 210 a2.5 2.5 0 1 0 5 0 a2.5 2.5 0 1 0 -5 0z" fill="black"></path><path d="M287.5 510 a2.5 2.5 0 1 0 5 0 a2.5 2.5 0 1 0 -5 0zM227.5 450 a2.5 2.5 0 1 0 5 0 a2.5 2.5 0 1 0 -5 0zM287.5 490 a2.5 2.5 0 1 0 5 0 a2.5 2.5 0 1 0 -5 0zM147.5 450 a2.5 2.5 0 1 0 5 0 a2.5 2.5 0 1 0 -5 0zM267.5 490 a2.5 2.5 0 1 0 5 0 a2.5 2.5 0 1 0 -5 0z" fill="black"></path><path d="M227.5 190 a2.5 2.5 0 1 0 5 0 a2.5 2.5 0 1 0 -5 0zM247.5 210 a2.5 2.5 0 1 0 5 0 a2.5 2.5 0 1 0 -5 0z" fill="black"></path><path d="M367.5 530 a2.5 2.5 0 1 0 5 0 a2.5 2.5 0 1 0 -5 0zM267.5 550 a2.5 2.5 0 1 0 5 0 a2.5 2.5 0 1 0 -5 0zM247.5 550 a2.5 2.5 0 1 0 5 0 a2.5 2.5 0 1 0 -5 0zM127.5 510 a2.5 2.5 0 1 0 5 0 a2.5 2.5 0 1 0 -5 0zM67.5 490 a2.5 2.5 0 1 0 5 0 a2.5 2.5 0 1 0 -5 0zM47.5 490 a2.5 2.5 0 1 0 5 0 a2.5 2.5 0 1 0 -5 0z" fill="black"></path><path d="M327.5 170 a2.5 2.5 0 1 0 5 0 a2.5 2.5 0 1 0 -5 0zM367.5 190 a2.5 2.5 0 1 0 5 0 a2.5 2.5 0 1 0 -5 0zM327.5 210 a2.5 2.5 0 1 0 5 0 a2.5 2.5 0 1 0 -5 0zM287.5 210 a2.5 2.5 0 1 0 5 0 a2.5 2.5 0 1 0 -5 0z" fill="black"></path><path d="M327.5 150 a2.5 2.5 0 1 0 5 0 a2.5 2.5 0 1 0 -5 0zM127.5 110 a2.5 2.5 0 1 0 5 0 a2.5 2.5 0 1 0 -5 0zM327.5 130 a2.5 2.5 0 1 0 5 0 a2.5 2.5 0 1 0 -5 0zM227.5 130 a2.5 2.5 0 1 0 5 0 a2.5 2.5 0 1 0 -5 0zM187.5 110 a2.5 2.5 0 1 0 5 0 a2.5 2.5 0 1 0 -5 0z" fill="black"></path></mask></defs></svg>